<svg xmlns="http://www.w3.org/2000/svg" xmlns:xlink="http://www.w3.org/1999/xlink" width="500" zoomAndPan="magnify" viewBox="0 0 375 374.999991" height="500" preserveAspectRatio="xMidYMid meet" version="1.0"><defs><g/><clipPath id="d244558139"><path d="M 50.929688 83.292969 L 323.929688 83.292969 L 323.929688 319.542969 L 50.929688 319.542969 Z M 50.929688 83.292969 " clip-rule="nonzero"/></clipPath></defs><rect x="-37.5" width="450" fill="#ffffff" y="-37.499999" height="449.999989" fill-opacity="1"/><rect x="-37.5" width="450" fill="#ffffff" y="-37.499999" height="449.999989" fill-opacity="1"/><g clip-path="url(#d244558139)"><path fill="#000000" d="M 228.394531 248.652344 L 187.449219 319.515625 L 187.441406 319.523438 L 50.941406 83.324219 L 50.929688 83.3125 L 132.839844 83.324219 L 160.136719 130.550781 L 160.136719 130.5625 L 160.144531 130.5625 L 173.789062 154.175781 L 146.492188 154.175781 L 119.191406 106.9375 L 91.894531 106.9375 L 187.429688 272.265625 L 201.082031 248.640625 L 173.777344 201.414062 L 201.082031 201.414062 Z M 228.375 106.9375 L 242.019531 83.332031 L 242.027344 83.332031 L 242.027344 83.324219 L 160.136719 83.324219 L 173.777344 106.9375 Z M 255.679688 106.9375 L 282.984375 106.9375 L 282.984375 106.945312 L 242.039062 177.789062 L 228.386719 154.175781 L 242.027344 130.5625 L 187.441406 130.5625 L 242.039062 225.039062 L 323.929688 83.324219 L 323.929688 83.3125 L 269.320312 83.324219 Z M 255.679688 106.9375 " fill-opacity="1" fill-rule="nonzero"/></g><g fill="#000000" fill-opacity="1"><g transform="translate(50.941419, 75.199298)"><g><path d="M 10.765625 -12.75 L 4.734375 -12.75 L 4.734375 -4.09375 L 10.765625 -4.09375 L 10.765625 0 L 4.734375 0 C 3.984375 0 3.296875 -0.179688 2.671875 -0.546875 C 2.054688 -0.921875 1.566406 -1.414062 1.203125 -2.03125 C 0.835938 -2.644531 0.65625 -3.332031 0.65625 -4.09375 L 0.65625 -12.75 C 0.65625 -13.5 0.835938 -14.179688 1.203125 -14.796875 C 1.566406 -15.421875 2.054688 -15.914062 2.671875 -16.28125 C 3.296875 -16.644531 3.984375 -16.828125 4.734375 -16.828125 L 10.765625 -16.828125 Z M 10.765625 -12.75 "/></g></g></g><g fill="#000000" fill-opacity="1"><g transform="translate(62.051091, 75.199298)"><g/></g></g><g fill="#000000" fill-opacity="1"><g transform="translate(69.577767, 75.199298)"><g><path d="M 8.296875 -16.828125 C 9.046875 -16.828125 9.726562 -16.644531 10.34375 -16.28125 C 10.96875 -15.914062 11.460938 -15.421875 11.828125 -14.796875 C 12.203125 -14.179688 12.390625 -13.5 12.390625 -12.75 L 12.390625 -4.09375 C 12.390625 -3.332031 12.203125 -2.644531 11.828125 -2.03125 C 11.460938 -1.414062 10.96875 -0.921875 10.34375 -0.546875 C 9.726562 -0.179688 9.046875 0 8.296875 0 L 4.734375 0 C 3.984375 0 3.296875 -0.179688 2.671875 -0.546875 C 2.054688 -0.921875 1.566406 -1.414062 1.203125 -2.03125 C 0.835938 -2.644531 0.65625 -3.332031 0.65625 -4.09375 L 0.65625 -12.75 C 0.65625 -13.5 0.835938 -14.179688 1.203125 -14.796875 C 1.566406 -15.421875 2.054688 -15.914062 2.671875 -16.28125 C 3.296875 -16.644531 3.984375 -16.828125 4.734375 -16.828125 Z M 4.734375 -4.09375 L 8.296875 -4.09375 L 8.296875 -12.75 L 4.734375 -12.75 Z M 4.734375 -4.09375 "/></g></g></g><g fill="#000000" fill-opacity="1"><g transform="translate(82.61119, 75.199298)"><g/></g></g><g fill="#000000" fill-opacity="1"><g transform="translate(90.137866, 75.199298)"><g><path d="M 8.484375 -16.828125 C 9.242188 -16.828125 9.929688 -16.644531 10.546875 -16.28125 C 11.160156 -15.914062 11.648438 -15.421875 12.015625 -14.796875 C 12.390625 -14.179688 12.578125 -13.5 12.578125 -12.75 L 12.578125 -4.09375 C 12.578125 -3.332031 12.390625 -2.644531 12.015625 -2.03125 C 11.648438 -1.414062 11.160156 -0.921875 10.546875 -0.546875 C 9.929688 -0.179688 9.242188 0 8.484375 0 L 0.84375 0 L 0.84375 -16.828125 Z M 4.921875 -4.09375 L 8.484375 -4.09375 L 8.484375 -12.75 L 4.921875 -12.75 Z M 4.921875 -4.09375 "/></g></g></g><g fill="#000000" fill-opacity="1"><g transform="translate(103.363664, 75.199298)"><g/></g></g><g fill="#000000" fill-opacity="1"><g transform="translate(110.89034, 75.199298)"><g><path d="M 3.46875 -16.828125 L 4.875 -16.828125 L 4.875 0 L 0.796875 0 L 0.796875 -14.15625 C 0.796875 -14.644531 0.914062 -15.09375 1.15625 -15.5 C 1.394531 -15.90625 1.71875 -16.226562 2.125 -16.46875 C 2.53125 -16.707031 2.976562 -16.828125 3.46875 -16.828125 Z M 3.46875 -16.828125 "/></g></g></g><g fill="#000000" fill-opacity="1"><g transform="translate(116.613507, 75.199298)"><g/></g></g><g fill="#000000" fill-opacity="1"><g transform="translate(124.140182, 75.199298)"><g><path d="M 8.484375 -16.828125 L 12.578125 -16.828125 L 12.578125 0 L 8.484375 0 L 4.921875 -7.859375 L 4.921875 0 L 0.84375 0 L 0.84375 -16.828125 C 2.09375 -16.828125 3.238281 -16.488281 4.28125 -15.8125 C 5.320312 -15.144531 6.097656 -14.25 6.609375 -13.125 L 8.484375 -8.96875 Z M 8.484375 -16.828125 "/></g></g></g><g fill="#000000" fill-opacity="1"><g transform="translate(137.558356, 75.199298)"><g/></g></g><g fill="#000000" fill-opacity="1"><g transform="translate(145.085032, 75.199298)"><g><path d="M 6.25 -6.078125 L 6.25 -10.171875 L 12.890625 -10.171875 L 12.890625 -4.09375 C 12.890625 -3.332031 12.703125 -2.644531 12.328125 -2.03125 C 11.960938 -1.414062 11.472656 -0.921875 10.859375 -0.546875 C 10.242188 -0.179688 9.554688 0 8.796875 0 L 4.734375 0 C 3.984375 0 3.296875 -0.179688 2.671875 -0.546875 C 2.054688 -0.921875 1.566406 -1.414062 1.203125 -2.03125 C 0.835938 -2.644531 0.65625 -3.332031 0.65625 -4.09375 L 0.65625 -12.75 C 0.65625 -13.5 0.835938 -14.179688 1.203125 -14.796875 C 1.566406 -15.421875 2.054688 -15.914062 2.671875 -16.28125 C 3.296875 -16.644531 3.984375 -16.828125 4.734375 -16.828125 L 8.796875 -16.828125 C 9.554688 -16.828125 10.242188 -16.644531 10.859375 -16.28125 C 11.472656 -15.914062 11.960938 -15.421875 12.328125 -14.796875 C 12.703125 -14.179688 12.890625 -13.5 12.890625 -12.75 L 4.734375 -12.75 L 4.734375 -4.09375 L 8.796875 -4.09375 L 8.796875 -6.078125 Z M 6.25 -6.078125 "/></g></g></g><g fill="#000000" fill-opacity="1"><g transform="translate(158.578131, 75.199298)"><g/></g></g><path stroke-linecap="butt" transform="matrix(0.75, 0, 0, 0.75, 176.857728, 54.253122)" fill="none" stroke-linejoin="miter" d="M 10.387613 7.485421 L 15.61678 7.485421 L 15.61678 23.777089 C 15.61678 24.735422 15.382405 25.610422 14.903239 26.402089 C 14.434488 27.193756 13.80428 27.823964 13.012613 28.292714 C 12.226155 28.766673 11.351155 29.001048 10.387613 29.001048 L 5.194905 29.001048 C 4.231363 29.001048 3.356363 28.766673 2.564696 28.292714 C 1.778238 27.823964 1.148029 27.193756 0.674071 26.402089 C 0.205321 25.610422 -0.0290541 24.735422 -0.0290541 23.777089 L -0.0290541 21.225005 L 5.194905 21.225005 L 5.194905 23.777089 L 10.387613 23.777089 Z M 36.950115 7.485421 L 42.174074 7.485421 L 42.174074 23.777089 C 42.174074 24.735422 41.93449 25.610422 41.460532 26.402089 C 40.986574 27.193756 40.356365 27.823964 39.569907 28.292714 C 38.783448 28.766673 37.908448 29.001048 36.950115 29.001048 L 32.392823 29.001048 C 31.43449 29.001048 30.554281 28.766673 29.767823 28.292714 C 28.976156 27.823964 28.345948 27.193756 27.877198 26.402089 C 27.403239 25.610422 27.168864 24.735422 27.168864 23.777089 L 27.168864 7.485421 L 32.392823 7.485421 L 32.392823 23.777089 L 36.950115 23.777089 Z M 63.590742 7.485421 L 68.8147 7.485421 L 68.8147 29.001048 L 63.590742 29.001048 L 59.043866 18.948964 L 59.043866 29.001048 L 53.814699 29.001048 L 53.814699 7.485421 C 55.413658 7.485421 56.882408 7.912504 58.210533 8.77188 C 59.543866 9.636463 60.53345 10.782296 61.1897 12.219796 L 63.590742 17.532297 Z M 93.283452 12.70938 L 85.564702 12.70938 L 85.564702 23.777089 L 93.283452 23.777089 L 93.283452 29.001048 L 85.564702 29.001048 C 84.60116 29.001048 83.720951 28.766673 82.929285 28.292714 C 82.148035 27.823964 81.517826 27.193756 81.049076 26.402089 C 80.580326 25.610422 80.340743 24.735422 80.340743 23.777089 L 80.340743 12.70938 C 80.340743 11.745838 80.580326 10.870838 81.049076 10.079171 C 81.517826 9.287505 82.148035 8.657296 82.929285 8.188546 C 83.720951 7.719796 84.60116 7.485421 85.564702 7.485421 L 93.283452 7.485421 Z M 103.637619 7.485421 L 120.179287 7.485421 C 120.179287 8.443755 119.939704 9.318755 119.465745 10.110421 C 118.991787 10.902088 118.361579 11.532296 117.57512 12.001046 C 116.788662 12.469796 115.913662 12.70938 114.944912 12.70938 L 114.179287 12.70938 L 114.179287 29.001048 L 108.986578 29.001048 L 108.986578 12.70938 L 103.637619 12.70938 Z M 133.913663 7.485421 L 135.720955 7.485421 L 135.720955 29.001048 L 130.496996 29.001048 L 130.496996 10.891671 C 130.496996 10.282296 130.648038 9.714588 130.955329 9.193755 C 131.262621 8.667713 131.679288 8.256254 132.200121 7.948963 C 132.726163 7.636463 133.293871 7.485421 133.913663 7.485421 Z M 157.02304 7.485421 C 157.986581 7.485421 158.861581 7.719796 159.64804 8.188546 C 160.439706 8.657296 161.069915 9.287505 161.538665 10.079171 C 162.012623 10.870838 162.246998 11.745838 162.246998 12.70938 L 162.246998 23.777089 C 162.246998 24.735422 162.012623 25.610422 161.538665 26.402089 C 161.069915 27.193756 160.439706 27.823964 159.64804 28.292714 C 158.861581 28.766673 157.986581 29.001048 157.02304 29.001048 L 152.476164 29.001048 C 151.507414 29.001048 150.632414 28.766673 149.840747 28.292714 C 149.054289 27.823964 148.429289 27.193756 147.955331 26.402089 C 147.486581 25.610422 147.252206 24.735422 147.252206 23.777089 L 147.252206 12.70938 C 147.252206 11.745838 147.486581 10.870838 147.955331 10.079171 C 148.429289 9.287505 149.054289 8.657296 149.840747 8.188546 C 150.632414 7.719796 151.507414 7.485421 152.476164 7.485421 Z M 152.476164 23.777089 L 157.02304 23.777089 L 157.02304 12.70938 L 152.476164 12.70938 Z M 183.549083 7.485421 L 188.773042 7.485421 L 188.773042 29.001048 L 183.549083 29.001048 L 179.002208 18.948964 L 179.002208 29.001048 L 173.767832 29.001048 L 173.767832 7.485421 C 175.371999 7.485421 176.835541 7.912504 178.168874 8.77188 C 179.496999 9.636463 180.491791 10.782296 181.148041 12.219796 L 183.549083 17.532297 Z M 183.549083 7.485421 " stroke="#000000" stroke-width="1.325904" stroke-opacity="1" stroke-miterlimit="4"/></svg>