<svg viewBox="0 0 375 375" xmlns="http://www.w3.org/2000/svg">
  <!-- Circular Background (Black) -->
  <circle cx="187.5" cy="187.5" r="187.5" fill="#000000" />
  
  <!-- Transparent / White CJ Logo -->
  <path 
    d="M 228.394531 248.652344 L 187.449219 319.515625 L 187.441406 319.523438 L 50.941406 83.324219 L 50.929688 83.3125 L 132.839844 83.324219 L 160.136719 130.550781 L 160.144531 130.5625 L 173.789062 154.175781 L 146.492188 154.175781 L 119.191406 106.9375 L 91.894531 106.9375 L 187.429688 272.265625 L 201.082031 248.640625 L 173.777344 201.414062 L 201.082031 201.414062 Z M 228.375 106.9375 L 242.019531 83.332031 L 242.027344 83.332031 L 242.027344 83.324219 L 160.136719 83.324219 L 173.777344 106.9375 Z M 255.679688 106.9375 L 282.984375 106.9375 L 282.984375 106.945312 L 242.039062 177.789062 L 228.386719 154.175781 L 242.027344 130.5625 L 187.441406 130.5625 L 242.039062 225.039062 L 323.929688 83.324219 L 323.929688 83.3125 L 269.320312 83.324219 Z" 
    fill="#ffffff" 
  />
</svg>